<svg xmlns="http://www.w3.org/2000/svg" xmlns:xlink="http://www.w3.org/1999/xlink" width="1080" zoomAndPan="magnify" viewBox="0 0 810 809.999993" height="1080" preserveAspectRatio="xMidYMid meet" version="1.0"><defs><clipPath id="a8460a5aa3"><path d="M 169.378906 427 L 640.378906 427 L 640.378906 670 L 169.378906 670 Z M 169.378906 427 " clip-rule="nonzero"/></clipPath></defs><path fill="#f3f3f3" d="M 634.5625 664.242188 L 175.660156 664.242188 C 175.660156 664.242188 181.605469 437.050781 405.113281 432.9375 C 405.113281 432.9375 634.5625 432.730469 634.5625 664.242188 " fill-opacity="1" fill-rule="nonzero"/><g clip-path="url(#a8460a5aa3)"><path fill="#292626" d="M 634.5625 664.242188 L 634.5625 658.523438 L 175.660156 658.523438 L 175.660156 664.242188 L 181.375 664.402344 L 181.375 664.285156 C 181.445312 661.316406 183.820312 605.25 213.019531 550.121094 C 227.609375 522.546875 248.78125 495.246094 279.648438 474.550781 C 310.519531 453.859375 351.148438 439.660156 405.203125 438.652344 L 405.113281 432.9375 L 405.113281 438.652344 C 405.113281 438.652344 405.980469 438.652344 407.625 438.722656 C 413.824219 438.925781 430.902344 439.933594 452.945312 444.621094 C 486.03125 451.6875 530.160156 467.097656 565.738281 500.273438 C 583.527344 516.898438 599.261719 537.910156 610.578125 564.753906 C 621.917969 591.597656 628.847656 624.296875 628.847656 664.242188 L 634.5625 664.242188 L 634.5625 658.523438 L 634.5625 664.242188 L 640.28125 664.242188 C 640.304688 605.546875 625.714844 560.960938 603.605469 527.460938 C 587.027344 502.355469 566.3125 483.492188 544.636719 469.40625 C 512.097656 448.28125 477.433594 437.785156 450.820312 432.523438 C 424.203125 427.265625 405.613281 427.21875 405.113281 427.21875 L 404.996094 427.21875 C 348.175781 428.25 304.664062 443.570312 271.738281 466.089844 C 247.042969 482.988281 228.316406 503.863281 214.164062 525.609375 C 192.945312 558.238281 181.945312 592.742188 176.183594 619.128906 C 170.421875 645.539062 169.941406 663.828125 169.941406 664.105469 C 169.898438 665.660156 170.46875 667.144531 171.566406 668.242188 C 172.640625 669.339844 174.105469 669.957031 175.660156 669.957031 L 634.5625 669.957031 C 636.074219 669.957031 637.535156 669.363281 638.609375 668.289062 C 639.6875 667.238281 640.28125 665.75 640.28125 664.242188 L 634.5625 664.242188 " fill-opacity="1" fill-rule="nonzero"/></g><path fill="#f3f3f3" d="M 282.941406 267.917969 C 282.941406 200.441406 337.636719 145.738281 405.113281 145.738281 C 472.585938 145.738281 527.28125 200.441406 527.28125 267.917969 C 527.28125 335.394531 472.585938 390.109375 405.113281 390.109375 C 337.636719 390.109375 282.941406 335.394531 282.941406 267.917969 " fill-opacity="1" fill-rule="nonzero"/><path fill="#292626" d="M 282.941406 267.917969 L 288.660156 267.917969 C 288.660156 235.722656 301.667969 206.664062 322.75 185.558594 C 343.855469 164.476562 372.917969 151.441406 405.113281 151.441406 C 437.304688 151.441406 466.367188 164.476562 487.472656 185.558594 C 508.554688 206.664062 521.5625 235.722656 521.5625 267.917969 C 521.5625 300.089844 508.554688 329.175781 487.472656 350.257812 C 466.367188 371.359375 437.28125 384.371094 405.113281 384.394531 C 372.917969 384.371094 343.855469 371.359375 322.773438 350.257812 C 301.667969 329.175781 288.660156 300.089844 288.660156 267.917969 L 277.226562 267.917969 C 277.226562 338.550781 334.457031 395.804688 405.113281 395.828125 C 475.765625 395.804688 532.996094 338.550781 532.996094 267.917969 C 532.996094 197.265625 475.765625 140.023438 405.113281 140.023438 C 334.457031 140.023438 277.226562 197.265625 277.226562 267.917969 L 282.941406 267.917969 " fill-opacity="1" fill-rule="nonzero"/></svg>