<svg xmlns="http://www.w3.org/2000/svg" xmlns:xlink="http://www.w3.org/1999/xlink" width="1080" zoomAndPan="magnify" viewBox="0 0 810 809.999993" height="1080" preserveAspectRatio="xMidYMid meet" version="1.0"><defs><clipPath id="044f9e6a12"><path d="M 129 164.316406 L 681 164.316406 L 681 645.816406 L 129 645.816406 Z M 129 164.316406 " clip-rule="nonzero"/></clipPath></defs><g clip-path="url(#044f9e6a12)"><path fill="#292626" d="M 621.746094 579.347656 C 630.855469 570.898438 639.113281 561.515625 646.324219 551.414062 C 669 520.195312 680.984375 483.921875 680.984375 446.523438 C 680.984375 359.527344 616.699219 284.132812 524.332031 262.066406 C 486.992188 201.722656 416.757812 164.316406 340.121094 164.316406 C 223.710938 164.316406 129.007812 250.101562 129.007812 355.550781 C 129.007812 392.949219 140.992188 429.222656 163.636719 460.394531 C 170.648438 470.214844 178.914062 479.589844 188.265625 488.335938 L 155.496094 535.667969 C 154.308594 537.382812 153.925781 539.523438 154.441406 541.542969 C 154.957031 543.558594 156.324219 545.253906 158.1875 546.1875 C 169.332031 551.757812 182.007812 554.699219 194.851562 554.699219 C 218.511719 554.699219 240.035156 545.152344 252.59375 529.433594 C 263.363281 533.917969 274.4375 537.464844 285.550781 540.082031 C 322.902344 600.378906 393.171875 637.757812 469.875 637.757812 C 500.480469 637.757812 529.878906 631.980469 557.367188 620.570312 C 569.765625 636.1875 591.289062 645.675781 615.144531 645.675781 C 628.195312 645.675781 640.875 642.789062 651.804688 637.320312 C 653.664062 636.390625 655.03125 634.699219 655.550781 632.683594 C 656.066406 630.667969 655.683594 628.527344 654.507812 626.816406 Z M 244.023438 516.71875 C 235.039062 531.0625 215.738281 540.332031 194.851562 540.332031 C 187.113281 540.332031 179.464844 539.046875 172.339844 536.582031 L 203.667969 491.335938 C 205.742188 488.335938 205.242188 484.253906 202.503906 481.847656 C 192.011719 472.625 182.867188 462.597656 175.292969 452 C 154.414062 423.246094 143.378906 389.898438 143.378906 355.550781 C 143.378906 258.027344 231.636719 178.683594 340.121094 178.683594 C 412.816406 178.683594 479.304688 214.429688 513.652344 272 C 528.941406 297.375 537.023438 326.269531 537.023438 355.550781 C 537.023438 453.074219 448.691406 532.414062 340.121094 532.414062 C 323.378906 532.414062 307.09375 530.527344 291.578125 526.765625 C 278.472656 523.867188 265.511719 519.566406 253.054688 513.976562 C 249.777344 512.511719 245.925781 513.675781 244.023438 516.71875 Z M 615.144531 631.304688 C 594.050781 631.304688 574.757812 622.117188 566 607.898438 C 564.652344 605.714844 562.304688 604.484375 559.878906 604.484375 C 558.894531 604.484375 557.898438 604.683594 556.953125 605.109375 C 529.773438 617.238281 500.476562 623.386719 469.875 623.386719 C 403.207031 623.386719 341.78125 593.410156 305.539062 544.167969 C 306.480469 544.3125 307.457031 544.359375 308.398438 544.492188 C 312.125 545.019531 315.882812 545.449219 319.675781 545.789062 C 321.230469 545.925781 322.773438 546.085938 324.339844 546.191406 C 329.554688 546.546875 334.808594 546.78125 340.121094 546.78125 C 456.613281 546.78125 551.390625 460.996094 551.390625 355.550781 C 551.390625 351.867188 551.246094 348.195312 551.011719 344.53125 C 550.9375 343.367188 550.8125 342.210938 550.714844 341.050781 C 550.503906 338.535156 550.257812 336.023438 549.9375 333.519531 C 549.769531 332.1875 549.574219 330.863281 549.375 329.539062 C 549.011719 327.15625 548.601562 324.785156 548.144531 322.417969 C 547.894531 321.128906 547.652344 319.839844 547.371094 318.554688 C 546.8125 315.972656 546.175781 313.410156 545.5 310.855469 C 545.234375 309.851562 545.003906 308.839844 544.71875 307.839844 C 543.722656 304.324219 542.628906 300.835938 541.414062 297.386719 C 541.175781 296.714844 540.894531 296.058594 540.652344 295.386719 C 539.632812 292.605469 538.5625 289.839844 537.402344 287.105469 C 536.902344 285.925781 536.359375 284.765625 535.835938 283.59375 C 535.21875 282.222656 534.648438 280.835938 534 279.476562 C 612.851562 303.625 666.617188 370.335938 666.617188 446.523438 C 666.617188 480.871094 655.578125 514.222656 634.667969 543.019531 C 626.832031 553.984375 617.703125 564 607.539062 572.78125 C 604.761719 575.179688 604.238281 579.28125 606.320312 582.296875 L 637.648438 627.6875 C 630.628906 630.066406 622.988281 631.304688 615.144531 631.304688 Z M 615.144531 631.304688 " fill-opacity="1" fill-rule="nonzero"/></g><path fill="#292626" d="M 260.453125 335.1875 C 246.9375 335.1875 237.289062 345.230469 237.289062 359.515625 C 237.289062 373.410156 246.5625 383.828125 260.0625 383.828125 C 274.347656 383.828125 283.226562 373.410156 283.226562 359.515625 C 283.226562 345.230469 273.96875 335.1875 260.453125 335.1875 Z M 260.453125 335.1875 " fill-opacity="1" fill-rule="nonzero"/><path fill="#292626" d="M 340.003906 383.828125 C 354.289062 383.828125 363.167969 373.410156 363.167969 359.515625 C 363.167969 345.230469 353.910156 335.1875 340.398438 335.1875 C 326.882812 335.1875 317.230469 345.230469 317.230469 359.515625 C 317.230469 373.410156 326.503906 383.828125 340.003906 383.828125 Z M 340.003906 383.828125 " fill-opacity="1" fill-rule="nonzero"/><path fill="#292626" d="M 419.945312 383.828125 C 434.230469 383.828125 443.109375 373.410156 443.109375 359.515625 C 443.109375 345.230469 433.855469 335.1875 420.339844 335.1875 C 406.824219 335.1875 397.175781 345.230469 397.175781 359.515625 C 397.175781 373.410156 406.445312 383.828125 419.945312 383.828125 Z M 419.945312 383.828125 " fill-opacity="1" fill-rule="nonzero"/></svg>