<svg xmlns="http://www.w3.org/2000/svg" xmlns:xlink="http://www.w3.org/1999/xlink" width="1080" zoomAndPan="magnify" viewBox="0 0 810 809.999993" height="1080" preserveAspectRatio="xMidYMid meet" version="1.0"><defs><clipPath id="f9c7b704bf"><path d="M 110.78125 174.339844 L 699.214844 174.339844 L 699.214844 679.414062 L 110.78125 679.414062 Z M 110.78125 174.339844 " clip-rule="nonzero"/></clipPath><clipPath id="c172026c83"><path d="M 539 130.414062 L 576 130.414062 L 576 239 L 539 239 Z M 539 130.414062 " clip-rule="nonzero"/></clipPath></defs><path fill="#292626" d="M 283.066406 194.476562 L 523.390625 194.476562 C 525.609375 194.476562 527.410156 192.679688 527.410156 190.457031 L 527.410156 178.402344 C 527.410156 176.183594 525.609375 174.382812 523.390625 174.382812 L 283.066406 174.382812 C 280.847656 174.382812 279.046875 176.183594 279.046875 178.402344 L 279.046875 190.457031 C 279.046875 192.679688 280.847656 194.476562 283.066406 194.476562 " fill-opacity="1" fill-rule="nonzero"/><g clip-path="url(#f9c7b704bf)"><path fill="#292626" d="M 636.644531 659.492188 L 173.351562 659.492188 C 149.894531 659.492188 130.875 640.476562 130.875 617.015625 L 130.875 334.25 L 679.121094 334.25 L 679.121094 617.015625 C 679.121094 640.476562 660.101562 659.492188 636.644531 659.492188 Z M 636.644531 174.378906 L 591.710938 174.378906 C 589.492188 174.378906 587.695312 176.179688 587.695312 178.402344 L 587.695312 190.453125 C 587.695312 192.675781 589.492188 194.476562 591.710938 194.476562 L 636.644531 194.476562 C 660.074219 194.476562 679.121094 213.523438 679.121094 236.996094 L 679.121094 314.15625 L 130.875 314.15625 L 130.875 236.996094 C 130.875 213.523438 149.925781 194.476562 173.351562 194.476562 L 214.746094 194.476562 C 216.964844 194.476562 218.765625 192.675781 218.765625 190.453125 L 218.765625 178.402344 C 218.765625 176.179688 216.964844 174.378906 214.746094 174.378906 L 173.351562 174.378906 C 138.871094 174.378906 110.78125 202.472656 110.78125 236.996094 L 110.78125 617.015625 C 110.78125 651.429688 138.9375 679.589844 173.351562 679.589844 L 636.644531 679.589844 C 671.058594 679.589844 699.21875 651.429688 699.21875 617.015625 L 699.21875 236.996094 C 699.21875 202.472656 671.125 174.378906 636.644531 174.378906 " fill-opacity="1" fill-rule="nonzero"/></g><path fill="#292626" d="M 248.90625 243.386719 C 258.875 243.386719 266.992188 235.308594 266.992188 225.300781 L 266.992188 153.484375 C 266.992188 143.480469 258.875 135.398438 248.90625 135.398438 C 238.898438 135.398438 230.824219 143.480469 230.824219 153.484375 L 230.824219 225.300781 C 230.824219 235.308594 238.898438 243.386719 248.90625 243.386719 " fill-opacity="1" fill-rule="nonzero"/><g clip-path="url(#c172026c83)"><path fill="#292626" d="M 557.550781 238.441406 C 567.519531 238.441406 575.636719 230.320312 575.636719 220.355469 L 575.636719 148.5 C 575.636719 138.53125 567.519531 130.417969 557.550781 130.417969 C 547.546875 130.417969 539.46875 138.53125 539.46875 148.5 L 539.46875 220.355469 C 539.46875 230.320312 547.546875 238.441406 557.550781 238.441406 " fill-opacity="1" fill-rule="nonzero"/></g></svg>