<svg xmlns="http://www.w3.org/2000/svg" xmlns:xlink="http://www.w3.org/1999/xlink" width="1080" zoomAndPan="magnify" viewBox="0 0 810 809.999993" height="1080" preserveAspectRatio="xMidYMid meet" version="1.0"><defs><clipPath id="a10354f3cc"><path d="M 107.695312 174 L 702.445312 174 L 702.445312 637.738281 L 107.695312 637.738281 Z M 107.695312 174 " clip-rule="nonzero"/></clipPath></defs><rect x="-81" width="972" fill="#ffffff" y="-80.999999" height="971.999992" fill-opacity="1"/><rect x="-81" width="972" fill="#ffffff" y="-80.999999" height="971.999992" fill-opacity="1"/><g clip-path="url(#a10354f3cc)"><path fill="#f3f3f3" d="M 691.558594 211.003906 C 685.671875 211.003906 680.914062 215.757812 680.914062 221.648438 L 680.914062 616.714844 L 433.152344 616.714844 C 464.601562 592.667969 534.148438 552.574219 649.953125 550.035156 L 660.328125 549.816406 L 660.328125 174.960938 L 650.382812 174.3125 C 648.871094 174.203125 612.503906 171.988281 563.058594 184.6875 C 519.667969 195.816406 457.957031 221.054688 405 277.847656 C 352.042969 221.054688 290.332031 195.816406 246.941406 184.6875 C 197.496094 171.988281 161.128906 174.203125 159.613281 174.3125 L 149.671875 174.960938 L 149.671875 549.816406 L 160.046875 550.035156 C 275.851562 552.574219 345.394531 592.667969 376.847656 616.714844 L 129.03125 616.714844 L 129.03125 221.648438 C 129.03125 215.757812 124.273438 211.003906 118.382812 211.003906 C 112.496094 211.003906 107.792969 215.757812 107.792969 221.648438 L 107.792969 638.007812 L 702.207031 638.007812 L 702.207031 221.648438 C 702.207031 215.757812 697.449219 211.003906 691.558594 211.003906 Z M 394.355469 603.207031 C 363.335938 577.972656 292.4375 534.09375 170.910156 529.121094 L 170.910156 195.386719 C 203.871094 195.980469 312.21875 205.21875 394.355469 297.679688 Z M 415.644531 297.679688 C 465.953125 241.046875 525.882812 216.296875 567.597656 205.4375 C 599.265625 197.222656 625.527344 195.546875 639.089844 195.332031 L 639.089844 529.066406 C 517.558594 534.039062 446.664062 577.917969 415.644531 603.152344 Z M 415.644531 297.679688 " fill-opacity="1" fill-rule="nonzero"/></g><path fill="#f3f3f3" d="M 369.171875 322.804688 C 268.933594 249.800781 207.816406 251.800781 205.277344 251.910156 C 199.441406 252.179688 194.957031 257.097656 195.171875 262.933594 C 195.386719 268.769531 200.304688 273.363281 206.195312 273.089844 C 206.789062 273.089844 263.3125 271.957031 356.636719 339.9375 C 358.527344 341.285156 360.6875 341.988281 362.902344 341.988281 C 366.199219 341.988281 369.441406 340.476562 371.496094 337.613281 C 374.953125 332.910156 373.875 326.265625 369.171875 322.804688 Z M 369.171875 322.804688 " fill-opacity="1" fill-rule="nonzero"/><path fill="#f3f3f3" d="M 369.171875 382.03125 C 268.933594 308.972656 207.816406 310.972656 205.277344 311.132812 C 199.441406 311.402344 194.957031 316.320312 195.171875 322.15625 C 195.386719 327.992188 200.359375 332.585938 206.195312 332.316406 C 206.734375 332.316406 263.3125 331.179688 356.636719 399.160156 C 358.527344 400.511719 360.6875 401.214844 362.902344 401.214844 C 366.199219 401.214844 369.441406 399.699219 371.496094 396.835938 C 374.953125 392.136719 373.875 385.488281 369.171875 382.03125 Z M 369.171875 382.03125 " fill-opacity="1" fill-rule="nonzero"/><path fill="#f3f3f3" d="M 369.171875 441.257812 C 268.933594 368.199219 207.816406 370.195312 205.277344 370.304688 C 199.441406 370.574219 194.957031 375.492188 195.171875 381.328125 C 195.386719 387.164062 200.304688 391.703125 206.195312 391.488281 C 206.789062 391.488281 263.3125 390.351562 356.636719 458.332031 C 358.527344 459.683594 360.6875 460.386719 362.902344 460.386719 C 366.199219 460.386719 369.441406 458.871094 371.496094 456.007812 C 374.953125 451.308594 373.875 444.660156 369.171875 441.257812 Z M 369.171875 441.257812 " fill-opacity="1" fill-rule="nonzero"/><path fill="#f3f3f3" d="M 369.171875 500.425781 C 268.933594 427.421875 207.816406 429.421875 205.277344 429.53125 C 199.441406 429.800781 194.957031 434.71875 195.171875 440.554688 C 195.386719 446.390625 200.359375 450.984375 206.195312 450.710938 C 206.734375 450.710938 263.3125 449.578125 356.636719 517.558594 C 358.527344 518.90625 360.6875 519.609375 362.902344 519.609375 C 366.199219 519.609375 369.441406 518.097656 371.496094 515.234375 C 374.953125 510.53125 373.875 503.886719 369.171875 500.425781 Z M 369.171875 500.425781 " fill-opacity="1" fill-rule="nonzero"/><path fill="#f3f3f3" d="M 604.722656 251.910156 C 602.183594 251.800781 541.066406 249.800781 440.828125 322.804688 C 436.070312 326.265625 435.042969 332.910156 438.503906 337.667969 C 440.554688 340.53125 443.796875 342.042969 447.09375 342.042969 C 449.257812 342.042969 451.472656 341.394531 453.363281 339.988281 C 546.414062 272.171875 602.886719 273.089844 603.804688 273.144531 C 609.640625 273.363281 614.558594 268.875 614.882812 263.039062 C 615.152344 257.148438 610.613281 252.179688 604.722656 251.910156 Z M 604.722656 251.910156 " fill-opacity="1" fill-rule="nonzero"/><path fill="#f3f3f3" d="M 604.722656 311.132812 C 602.183594 311.027344 541.066406 309.027344 440.828125 382.03125 C 436.070312 385.488281 435.042969 392.136719 438.503906 396.890625 C 440.554688 399.753906 443.796875 401.269531 447.09375 401.269531 C 449.257812 401.269531 451.472656 400.621094 453.363281 399.214844 C 546.414062 331.453125 602.886719 332.316406 603.804688 332.371094 C 609.640625 332.640625 614.558594 328.101562 614.882812 322.265625 C 615.152344 316.375 610.613281 311.402344 604.722656 311.132812 Z M 604.722656 311.132812 " fill-opacity="1" fill-rule="nonzero"/><path fill="#f3f3f3" d="M 604.722656 370.304688 C 602.183594 370.195312 541.066406 368.199219 440.828125 441.203125 C 436.070312 444.660156 435.042969 451.308594 438.503906 456.0625 C 440.554688 458.925781 443.796875 460.4375 447.09375 460.4375 C 449.257812 460.4375 451.472656 459.789062 453.363281 458.386719 C 546.414062 390.621094 602.886719 391.488281 603.804688 391.542969 C 609.640625 391.757812 614.558594 387.273438 614.882812 381.4375 C 615.152344 375.546875 610.613281 370.574219 604.722656 370.304688 Z M 604.722656 370.304688 " fill-opacity="1" fill-rule="nonzero"/><path fill="#f3f3f3" d="M 604.722656 429.53125 C 602.183594 429.421875 541.066406 427.421875 440.828125 500.425781 C 436.070312 503.886719 435.042969 510.53125 438.503906 515.289062 C 440.554688 518.152344 443.796875 519.664062 447.09375 519.664062 C 449.257812 519.664062 451.472656 519.015625 453.363281 517.609375 C 546.414062 449.847656 602.886719 450.710938 603.804688 450.765625 C 609.640625 450.984375 614.558594 446.496094 614.882812 440.660156 C 615.152344 434.773438 610.613281 429.800781 604.722656 429.53125 Z M 604.722656 429.53125 " fill-opacity="1" fill-rule="nonzero"/></svg>